<?xml version="1.0" encoding="UTF-8" standalone="no"?>
<!-- Created with Inkscape (http://www.inkscape.org/) -->
<svg
   xmlns:dc="http://purl.org/dc/elements/1.1/"
   xmlns:cc="http://creativecommons.org/ns#"
   xmlns:rdf="http://www.w3.org/1999/02/22-rdf-syntax-ns#"
   xmlns:svg="http://www.w3.org/2000/svg"
   xmlns="http://www.w3.org/2000/svg"
   xmlns:sodipodi="http://sodipodi.sourceforge.net/DTD/sodipodi-0.dtd"
   xmlns:inkscape="http://www.inkscape.org/namespaces/inkscape"
   width="744.09448819"
   height="1052.3622047"
   id="svg3985"
   sodipodi:version="0.32"
   inkscape:version="0.46"
   sodipodi:docname="video.svg"
   inkscape:output_extension="org.inkscape.output.svg.inkscape">
  <defs
     id="defs3987">
    <inkscape:perspective
       sodipodi:type="inkscape:persp3d"
       inkscape:vp_x="0 : 526.18109 : 1"
       inkscape:vp_y="0 : 1000 : 0"
       inkscape:vp_z="744.09448 : 526.18109 : 1"
       inkscape:persp3d-origin="372.04724 : 350.78739 : 1"
       id="perspective3993" />
    <inkscape:perspective
       id="perspective4002"
       inkscape:persp3d-origin="372.04724 : 350.78739 : 1"
       inkscape:vp_z="744.09448 : 526.18109 : 1"
       inkscape:vp_y="0 : 1000 : 0"
       inkscape:vp_x="0 : 526.18109 : 1"
       sodipodi:type="inkscape:persp3d" />
  </defs>
  <sodipodi:namedview
     id="base"
     pagecolor="#ffffff"
     bordercolor="#666666"
     borderopacity="1.0"
     gridtolerance="10000"
     guidetolerance="10"
     objecttolerance="10"
     inkscape:pageopacity="0.0"
     inkscape:pageshadow="2"
     inkscape:zoom="0.7"
     inkscape:cx="334.00638"
     inkscape:cy="709.73444"
     inkscape:document-units="px"
     inkscape:current-layer="layer1"
     showgrid="false"
     inkscape:window-width="1053"
     inkscape:window-height="667"
     inkscape:window-x="112"
     inkscape:window-y="35" />
  <metadata
     id="metadata3990">
    <rdf:RDF>
      <cc:Work
         rdf:about="">
        <dc:format>image/svg+xml</dc:format>
        <dc:type
           rdf:resource="http://purl.org/dc/dcmitype/StillImage" />
      </cc:Work>
    </rdf:RDF>
  </metadata>
  <g
     inkscape:label="Layer 1"
     inkscape:groupmode="layer"
     id="layer1">
    <path
       id="path4541"
       style="fill:#4c4c4c;fill-opacity:1"
       d="M 321.07957,335.94679 C 320.74413,335.40404 320.54167,325.29333 320.62967,313.47854 L 320.78965,291.99712 L 317.64802,285.2836 C 315.09728,279.83279 314.7476,278.33279 315.7889,277.30849 C 317.87088,275.26049 372.87863,250.00544 373.89253,250.63207 C 374.84097,251.21823 380.57142,263.2606 380.57142,264.66754 C 380.57142,265.09536 379.10892,266.08775 377.32142,266.87285 C 370.79252,269.74046 325.09853,291.10891 324.10002,291.76142 C 323.53429,292.13113 337.69642,292.65861 355.57142,292.93361 L 388.07142,293.43361 L 388.34251,313.80573 C 388.53124,327.98813 388.26616,334.59649 387.47007,335.55573 C 386.5418,336.67422 380.24259,336.93361 354.00799,336.93361 C 333.82877,336.93361 321.46037,336.56295 321.07957,335.94679 z M 339.37697,327.66791 C 340.83846,325.90692 340.35098,316.57785 338.69309,314.58022 C 337.94148,313.67458 336.40456,312.93361 335.27772,312.93361 C 332.89136,312.93361 329.57142,315.6419 329.57142,317.5886 C 329.57142,319.28484 333.25015,319.3665 333.85118,317.68361 C 334.11085,316.95654 334.66864,316.80464 335.18451,317.32052 C 335.70039,317.83639 335.54849,318.39418 334.82142,318.65385 C 333.05066,319.28626 333.26371,322.93361 335.07142,322.93361 C 335.89642,322.93361 336.57142,323.35705 336.57142,323.87459 C 336.57142,325.32171 334.78745,326.09217 334.0815,324.94992 C 333.17019,323.47538 329.57142,323.70175 329.57142,325.23361 C 329.57142,328.62733 337.0416,330.48185 339.37697,327.66791 z M 361.3847,326.68361 C 361.63745,325.3568 361.03532,324.92592 358.89474,324.90181 C 356.47148,324.87451 356.29625,324.69739 357.65808,323.65181 C 358.53074,322.9818 359.78622,321.4171 360.44803,320.17469 C 361.44472,318.30364 361.34399,317.49344 359.86138,315.45612 C 357.39727,312.07009 353.32951,312.15439 350.58108,315.64845 C 348.56591,318.21033 348.54774,318.39974 350.2585,319.01007 C 352.37433,319.7649 354.57142,319.13197 354.57142,317.7676 C 354.57142,317.24399 355.04234,317.10662 355.6179,317.46234 C 356.23568,317.84414 355.00669,319.90748 352.6179,322.49901 C 350.39234,324.91346 348.57142,327.37045 348.57142,327.95898 C 348.57142,328.63655 350.86022,328.91984 354.81138,328.73133 C 359.81699,328.4925 361.11728,328.08744 361.3847,326.68361 z M 378.36348,321.18361 C 378.19006,316.58184 377.64142,313.43361 377.01288,313.43361 C 374.88206,313.43361 369.36567,318.95506 369.95698,320.49598 C 370.4159,321.69191 370.97536,321.78779 372.55658,320.94155 C 374.4387,319.93427 374.57142,320.16199 374.57142,324.39843 C 374.57142,328.29808 374.85758,328.93361 376.61348,328.93361 C 378.51903,328.93361 378.63602,328.41551 378.36348,321.18361 z M 335.38136,301.62606 C 338.26425,298.70691 340.31138,296.0069 339.93054,295.62606 C 337.95073,293.64625 333.87354,295.19618 329.35577,299.64602 C 323.87566,305.04372 323.35695,306.93361 327.35558,306.93361 C 329.39303,306.93361 331.54554,305.51013 335.38136,301.62606 z M 351.97717,302.0293 C 357.05138,296.87762 357.25793,294.93361 352.7311,294.93361 C 350.73024,294.93361 348.43536,296.52365 344.07142,300.93361 L 338.13403,306.93361 L 342.64032,306.93361 C 346.71283,306.93361 347.61159,306.46152 351.97717,302.0293 z M 367.97717,302.0293 C 373.03092,296.8984 373.25706,294.93361 368.79385,294.93361 C 366.92945,294.93361 364.55529,296.49302 360.85287,300.14945 C 357.94807,303.01816 355.57142,305.71816 355.57142,306.14945 C 355.57142,306.58074 357.27584,306.93361 359.35901,306.93361 C 362.57096,306.93361 363.88076,306.18825 367.97717,302.0293 z M 381.53011,302.73808 C 385.85073,298.33039 386.39624,295.62634 383.0612,295.14855 C 381.73454,294.95848 379.08228,296.87474 375.10272,300.89855 L 369.13403,306.93361 L 373.27575,306.93361 C 376.81976,306.93361 378.01098,306.32814 381.53011,302.73808 z M 332.41778,284.36037 C 334.15228,283.49509 335.57142,282.46993 335.57142,282.08224 C 335.57142,281.69456 332.17651,280.30099 328.02718,278.98544 C 321.07309,276.78062 320.35623,276.72023 318.86308,278.21337 C 316.69194,280.38452 318.53476,282.64851 323.18295,283.52051 C 325.05876,283.87242 326.8401,284.55932 327.14148,285.04697 C 327.90525,286.28278 328.79677,286.16677 332.41778,284.36037 z M 346.02437,277.7731 C 347.42525,277.13481 348.57142,276.29511 348.57142,275.90709 C 348.57142,274.98537 337.44173,270.93361 334.90988,270.93361 C 332.775,270.93361 328.76179,273.45731 329.586,274.28153 C 330.47468,275.1702 339.99625,278.7245 341.77437,278.83131 C 342.71099,278.88758 344.62349,278.41138 346.02437,277.7731 z M 361.99842,270.41214 C 364.37019,268.61779 364.42485,268.6654 357.00484,266.06208 C 349.60907,263.46726 348.40863,263.43509 345.54374,265.75494 L 343.2945,267.57627 L 346.68296,268.84829 C 348.54661,269.5479 350.97142,270.49785 352.07142,270.95928 C 355.19758,272.27066 359.8832,272.0124 361.99842,270.41214 z M 376.57195,263.43297 C 377.63051,262.15748 376.96943,261.55732 372.16588,259.43297 C 369.05756,258.05832 365.8734,256.93361 365.08996,256.93361 C 363.17343,256.93361 358.57142,259.07674 358.57142,259.96926 C 358.57142,261.26348 367.99787,264.77009 371.69897,264.85267 C 373.79099,264.89935 375.85372,264.29839 376.57195,263.43297 z"
       inkscape:export-filename="C:\Documents and Settings\anton\My Documents\workspace\moco\theme\default\video16.png"
       inkscape:export-xdpi="14.762226"
       inkscape:export-ydpi="14.762226" />
  </g>
</svg>
